<mxfile host="app.diagrams.net" modified="2024-06-29T17:06:06.859Z" agent="Mozilla/5.0 (Windows NT 10.0; Win64; x64) AppleWebKit/537.36 (KHTML, like Gecko) Chrome/123.0.0.0 Safari/537.36 OPR/109.0.0.0" version="24.6.4" etag="pMf4WkmSxV6tc3xKpw86" type="github">
  <diagram name="PÃ¡gina-1" id="egkw9RXW1K_TA9egXCMn">
    <mxGraphModel>
      <root>
        <mxCell id="0" />
        <mxCell id="1" parent="0" />
      </root>
    </mxGraphModel>
  </diagram>
</mxfile>
